<svg width="40" height="40" fill="none" xmlns="http://www.w3.org/2000/svg"><g clip-path="url(#a)"><path d="M0 0h40v40H0z"/><circle cx="20" cy="20" r="20" fill="#126F9A"/><rect x="6" y="6" width="28" height="28" rx="11" fill="#fff"/><g clip-path="url(#b)"><path d="M33.094 4.969H7.906A1.937 1.937 0 0 0 5.97 6.906v25.188a1.938 1.938 0 0 0 1.937 1.937h25.188a1.938 1.938 0 0 0 1.937-1.937V6.906a1.938 1.938 0 0 0-1.937-1.937ZM14.578 29.763h-4.372V15.867h4.372v13.896ZM12.392 13.96a2.543 2.543 0 1 1 .015-5.086 2.543 2.543 0 0 1-.015 5.086Zm18.397 15.803h-4.283v-6.721c0-1.635 0-3.633-2.276-3.633-2.277 0-2.551 1.726-2.551 3.542v6.903H17.4V15.867h4.007v1.908h.09a4.553 4.553 0 0 1 4.1-2.271c4.372 0 5.191 2.906 5.191 6.63l.001 7.629Z" fill="#126F9A"/></g></g><defs><clipPath id="a"><path fill="#fff" d="M0 0h40v40H0z"/></clipPath><clipPath id="b"><rect x="5" y="4" width="31" height="31" rx="13" fill="#fff"/></clipPath></defs></svg>
