<?xml version="1.0" standalone="no"?>
<!DOCTYPE svg PUBLIC "-//W3C//DTD SVG 20010904//EN"
 "http://www.w3.org/TR/2001/REC-SVG-20010904/DTD/svg10.dtd">
<svg version="1.0" xmlns="http://www.w3.org/2000/svg"
 width="1600.000000pt" height="478.000000pt" viewBox="0 0 1600.000000 478.000000"
 preserveAspectRatio="xMidYMid meet">

<g transform="translate(0.000000,478.000000) scale(0.100000,-0.100000)"
fill="#000000" stroke="none">
<path d="M9658 3938 c-21 -11 -76 -27 -123 -36 l-86 -17 30 -18 c61 -36 62
-53 59 -728 -3 -657 -2 -646 -60 -671 -15 -7 -28 -15 -28 -18 0 -3 74 -5 165
-5 91 0 165 2 165 5 0 3 -13 11 -29 18 -57 25 -56 14 -56 785 0 389 0 706 0
706 0 -1 -17 -10 -37 -21z"/>
<path d="M10135 3951 c-15 -14 -125 -48 -183 -56 l-52 -7 25 -20 c62 -49 60
-22 60 -710 0 -619 0 -627 -21 -655 -11 -15 -30 -32 -42 -38 -12 -5 -22 -12
-22 -15 0 -3 74 -5 165 -5 91 0 165 2 165 5 0 3 -15 12 -33 20 -59 27 -58 21
-55 792 2 384 3 698 3 698 -1 0 -5 -4 -10 -9z"/>
<path d="M4350 3939 c-496 -58 -781 -454 -884 -1229 -9 -63 -22 -176 -30 -250
-35 -318 -132 -533 -272 -600 -66 -32 -149 -25 -201 17 -127 101 -123 256 12
598 82 205 113 312 131 455 32 235 -22 433 -155 569 -242 248 -670 260 -1086
30 -461 -255 -885 -772 -1154 -1409 -144 -341 -272 -838 -275 -1070 -1 -88 1
-99 28 -148 30 -53 95 -110 152 -133 42 -16 143 -14 186 4 51 21 122 90 146
140 11 23 23 74 27 112 66 680 396 1406 826 1820 128 123 215 186 344 250 182
91 283 106 376 57 62 -32 96 -87 102 -164 8 -96 -11 -157 -151 -499 -85 -206
-106 -295 -106 -444 0 -94 5 -137 23 -199 69 -245 232 -414 471 -487 98 -30
269 -32 380 -5 325 79 561 350 665 766 28 114 40 193 60 407 38 413 101 636
214 765 127 144 335 155 469 25 88 -85 161 -221 261 -482 33 -88 90 -239 127
-335 145 -381 348 -825 508 -1115 160 -288 333 -538 404 -585 143 -95 337 -34
397 124 23 60 17 174 -13 232 -11 22 -56 97 -100 165 -331 519 -525 923 -791
1654 -138 377 -230 549 -376 704 -194 204 -437 293 -715 260z"/>
<path d="M7015 3791 c46 -21 87 -63 104 -107 17 -44 11 -1053 -8 -1107 -17
-52 -58 -95 -106 -112 -22 -8 -38 -14 -35 -15 3 0 85 -1 183 -3 167 -2 214 3
148 16 -50 10 -96 60 -116 124 -16 51 -18 114 -22 543 -3 317 -1 482 5 475 5
-5 131 -268 278 -583 256 -544 270 -573 294 -570 22 3 48 56 290 601 l265 599
3 -499 c2 -332 -1 -520 -9 -565 -11 -70 -36 -113 -73 -128 -13 -5 49 -9 159
-9 150 -1 176 1 155 12 -14 7 -34 30 -45 52 -19 39 -20 60 -20 610 0 614 1
625 52 665 l26 20 -105 0 -105 0 -21 -47 c-11 -27 -124 -282 -252 -568 -127
-286 -237 -533 -244 -550 l-12 -30 -28 60 c-15 33 -140 302 -278 598 l-251
537 -136 0 -136 0 40 -19z"/>
<path d="M8889 3426 c-81 -33 -122 -61 -171 -115 -179 -198 -170 -558 17 -747
125 -126 344 -164 502 -87 74 36 151 115 168 173 7 23 4 22 -35 -13 -73 -67
-170 -92 -289 -76 -86 12 -140 38 -202 96 -79 74 -139 214 -139 324 l0 44 329
-3 330 -3 7 35 c8 46 -12 158 -37 208 -25 49 -81 111 -124 138 -89 55 -256 67
-356 26z m251 -18 c90 -46 130 -134 130 -283 l0 -75 -265 0 -265 0 0 26 c0 44
30 146 58 198 71 131 227 192 342 134z"/>
<path d="M10585 3432 c-77 -26 -135 -65 -193 -126 -89 -94 -132 -212 -132
-361 0 -196 72 -345 212 -435 84 -55 163 -73 289 -68 92 3 112 7 174 36 229
108 328 383 238 663 -41 128 -163 250 -289 289 -85 26 -227 27 -299 2z m228
-16 c87 -32 157 -116 199 -242 20 -61 23 -88 23 -234 0 -145 -3 -173 -23 -235
-41 -123 -116 -210 -203 -235 -134 -39 -265 29 -331 171 -42 89 -53 153 -53
304 0 152 20 243 71 331 30 53 113 128 156 141 46 15 116 15 161 -1z"/>
<path d="M11396 3423 c-39 -13 -92 -27 -119 -30 l-49 -6 30 -23 c56 -44 57
-55 57 -461 0 -360 -1 -372 -21 -400 -11 -15 -30 -32 -42 -38 -12 -5 -22 -12
-22 -15 0 -3 74 -5 165 -5 91 0 165 2 165 5 0 3 -10 10 -22 15 -12 6 -31 23
-42 38 -21 28 -21 38 -21 488 0 252 -2 458 -5 458 -3 -1 -36 -13 -74 -26z"/>
<path d="M11702 3429 c-61 -24 -140 -96 -171 -157 -29 -57 -26 -62 9 -14 89
124 266 147 365 48 68 -69 70 -79 70 -448 0 -315 -1 -328 -21 -355 -11 -15
-30 -32 -42 -38 -12 -5 -22 -12 -22 -15 0 -3 74 -5 165 -5 91 0 165 2 165 5 0
3 -10 10 -22 15 -12 6 -31 23 -42 38 -20 27 -21 44 -27 375 -5 311 -7 352 -25
396 -26 68 -97 138 -158 159 -68 23 -177 21 -244 -4z"/>
<path d="M11702 2280 c-34 -16 -166 -49 -199 -50 -4 -1 4 -7 19 -16 56 -30 63
-58 66 -296 l4 -218 -52 35 c-82 55 -178 74 -286 56 -195 -33 -332 -176 -369
-388 -61 -341 83 -606 337 -621 119 -7 217 44 287 149 23 34 41 66 40 73 0 6
-8 0 -17 -14 -54 -80 -126 -120 -215 -120 -91 0 -159 36 -209 111 -49 73 -69
149 -75 284 -9 199 37 357 129 440 62 56 102 69 194 63 85 -6 138 -34 178 -96
51 -76 56 -125 56 -524 0 -202 2 -368 5 -368 3 0 20 6 38 13 38 16 121 36 160
39 31 3 36 14 9 22 -10 3 -27 21 -37 38 -19 32 -20 55 -20 721 0 378 0 687 0
686 0 0 -19 -9 -43 -19z"/>
<path d="M6990 2152 c0 -4 10 -12 23 -17 12 -6 31 -28 42 -50 19 -39 20 -60
20 -605 0 -513 -2 -569 -17 -610 -11 -26 -29 -52 -45 -62 -27 -17 -22 -17 156
-18 l184 0 -34 23 c-67 45 -79 107 -79 435 l0 234 173 -4 c161 -3 175 -5 215
-28 47 -26 77 -68 98 -133 11 -38 13 -22 13 158 l1 200 -24 -51 c-44 -95 -96
-114 -318 -114 l-158 0 0 311 0 311 183 -4 c215 -4 257 -17 332 -100 43 -48
105 -182 105 -228 0 -11 5 -20 10 -20 7 0 9 13 6 33 -3 17 -8 103 -12 190 l-6
157 -434 0 c-239 -1 -434 -4 -434 -8z"/>
<path d="M13423 2138 c-41 -11 -63 -42 -63 -91 0 -98 131 -132 176 -46 21 41
17 74 -11 107 -28 34 -56 42 -102 30z"/>
<path d="M12881 1889 c-30 -33 -74 -72 -98 -87 -51 -32 -54 -42 -13 -42 l30 0
0 -332 c1 -377 8 -458 46 -528 63 -116 229 -156 349 -85 46 27 105 103 105
134 -1 12 -3 11 -12 -4 -23 -42 -53 -66 -101 -80 -91 -27 -174 4 -212 80 -19
37 -20 66 -25 428 l-5 387 161 0 c151 0 163 -1 195 -23 22 -15 41 -40 53 -72
19 -46 21 -79 24 -400 4 -392 1 -413 -57 -452 l-34 -23 169 0 169 0 -32 20
c-59 36 -58 24 -58 523 l0 457 -295 0 -295 0 2 80 c1 44 -1 79 -5 79 -4 -1
-31 -28 -61 -60z"/>
<path d="M8213 1786 c-210 -51 -345 -224 -360 -461 -19 -307 156 -525 437
-542 156 -10 280 36 373 137 65 70 104 149 123 246 18 97 18 147 -2 242 -56
275 -308 441 -571 378z m212 -35 c60 -27 114 -87 150 -166 44 -94 58 -168 58
-305 -1 -181 -40 -309 -121 -393 -58 -61 -106 -81 -187 -82 -119 0 -202 61
-261 193 -88 194 -62 515 53 666 74 97 206 134 308 87z"/>
<path d="M9052 1778 c-24 -11 -80 -27 -124 -37 l-81 -17 28 -18 c55 -36 59
-63 65 -396 l5 -306 33 -66 c38 -78 105 -131 190 -149 143 -30 304 49 372 181
26 52 20 64 -8 16 -26 -44 -92 -93 -146 -107 -23 -6 -68 -9 -100 -6 -111 10
-179 87 -197 224 -11 86 -11 397 0 568 5 72 8 130 7 131 0 1 -20 -8 -44 -18z"/>
<path d="M9700 1774 c-30 -12 -85 -28 -121 -35 l-66 -12 34 -31 c50 -46 55
-95 51 -480 -3 -368 -6 -383 -71 -411 -28 -13 10 -14 312 -15 l344 0 -34 23
c-65 43 -64 39 -64 492 0 226 3 429 8 452 l7 42 -37 -16 c-50 -21 -118 -40
-172 -48 l-44 -7 31 -25 c17 -13 37 -41 43 -61 16 -50 24 -613 11 -711 -13
-89 -37 -121 -92 -121 -26 0 -43 7 -61 26 l-24 26 0 469 c0 258 0 469 0 468 0
-1 -25 -12 -55 -25z"/>
<path d="M10367 1790 c-90 -23 -170 -86 -222 -174 -36 -61 -27 -68 12 -12 42
59 108 97 180 103 114 10 190 -32 234 -129 24 -52 24 -58 24 -368 0 -349 -1
-355 -64 -397 l-34 -23 174 1 c166 0 173 1 142 16 -64 32 -67 49 -73 433 -6
378 -6 379 -70 460 -58 73 -200 115 -303 90z"/>
<path d="M12161 1790 c-52 -11 -156 -59 -190 -87 l-25 -20 29 -128 29 -127 13
76 c18 106 47 169 99 215 64 56 153 68 228 31 81 -39 116 -127 119 -299 l2
-114 -260 -77 c-253 -75 -261 -78 -280 -111 -29 -50 -28 -178 2 -236 48 -89
151 -140 269 -130 103 8 179 60 228 154 25 49 19 52 -16 9 -80 -97 -241 -101
-320 -8 -31 37 -53 128 -43 179 14 75 12 74 213 132 103 30 193 56 200 59 9 3
12 -54 12 -263 0 -209 3 -266 13 -261 43 17 149 46 180 48 41 3 48 13 16 23
-11 4 -29 26 -40 48 -16 37 -19 69 -19 282 0 132 -5 269 -11 305 -30 189 -143
295 -325 305 -44 2 -99 0 -123 -5z"/>
<path d="M14030 1782 c-252 -66 -397 -336 -335 -625 29 -139 122 -270 233
-326 96 -49 235 -63 351 -36 222 53 364 266 348 526 -20 331 -291 541 -597
461z m240 -37 c76 -40 146 -146 177 -272 22 -90 22 -284 -1 -376 -36 -151
-115 -252 -221 -282 -97 -28 -185 -4 -259 72 -152 156 -167 565 -28 764 79
113 218 153 332 94z"/>
<path d="M14925 1791 c-15 -14 -125 -48 -185 -56 -54 -7 -54 -7 -27 -21 60
-32 62 -43 65 -446 3 -407 2 -420 -60 -458 l-33 -20 175 0 c158 1 172 2 143
15 -17 7 -40 28 -50 47 -17 30 -18 66 -18 458 0 234 3 440 7 458 7 32 1 40
-17 23z"/>
<path d="M15223 1790 c-91 -19 -189 -95 -232 -179 -29 -57 -26 -59 12 -9 76
100 202 135 310 85 38 -17 63 -37 81 -64 47 -72 51 -107 51 -428 0 -334 -2
-345 -68 -385 l-32 -20 175 0 c158 1 172 2 143 15 -65 28 -67 42 -73 425 -5
337 -6 346 -29 398 -56 123 -197 191 -338 162z"/>
</g>
</svg>
