<?xml version="1.0" encoding="UTF-8"?>
<svg width="19px" height="14px" viewBox="0 0 19 14" version="1.1" xmlns="http://www.w3.org/2000/svg" xmlns:xlink="http://www.w3.org/1999/xlink">
    <!-- Generator: Sketch 63.1 (92452) - https://sketch.com -->
    <title>icon:envelope</title>
    <desc>Created with Sketch.</desc>
    <g id="Page-1" stroke="none" stroke-width="1" fill="none" fill-rule="evenodd">
        <g id="OCW-NexGen-Homepage-07/27/2020-Updates-(Shareable-prototype)-Expanded" transform="translate(-803.000000, -1911.000000)" fill="#000000" fill-rule="nonzero">
            <g id="Group-8" transform="translate(2.000000, 1806.000000)">
                <g id="Group-7" transform="translate(740.000000, 33.000000)">
                    <g id="Group-4" transform="translate(49.000000, 58.000000)">
                        <g id="input:email_address">
                            <g id="icon:envelope" transform="translate(12.000000, 14.000000)">
                                <path d="M16.098103,0.0284552846 L2.24227642,0.0284552846 C1.00542005,0.0284552846 0,1.03387534 0,2.27073171 L0,11.7406504 C0,12.9775068 1.00542005,13.9829268 2.24227642,13.9829268 L16.0943089,13.9829268 C17.3311653,13.9829268 18.3365961,12.9775068 18.3365961,11.7406504 L18.3365961,2.27452575 C18.3403794,1.03766938 17.3349593,0.0284552846 16.098103,0.0284552846 Z M17.3159892,11.7406504 C17.3159892,12.4121951 16.7696477,12.9585366 16.098103,12.9585366 L2.24227642,12.9585366 C1.57073171,12.9585366 1.02439024,12.4121951 1.02439024,11.7406504 L1.02439024,2.27452575 C1.02439024,1.60298103 1.57073171,1.05663957 2.24227642,1.05663957 L16.0943089,1.05663957 C16.7658537,1.05663957 17.3121951,1.60298103 17.3121951,2.27452575 L17.3121951,11.7406504 L17.3159892,11.7406504 Z" id="Shape"></path>
                                <path d="M11.5642276,6.88807588 L16.0487805,2.86639566 C16.2574526,2.67669377 16.2764228,2.35420054 16.0867209,2.14173442 C15.897019,1.93306233 15.5745257,1.91409214 15.3620596,2.10379404 L9.17777778,7.65447154 L7.97127371,6.57696477 C7.96747967,6.57317073 7.96368564,6.56937669 7.96368564,6.56558266 C7.93712737,6.53902439 7.91056911,6.51626016 7.8802168,6.49349593 L2.97073171,2.1 C2.75826558,1.9102981 2.43577236,1.92926829 2.24607046,2.14173442 C2.05636856,2.35420054 2.07533875,2.67669377 2.28780488,2.86639566 L6.82547425,6.92222222 L2.30677507,11.1525745 C2.10189702,11.3460705 2.09051491,11.6685637 2.28401084,11.8772358 C2.38644986,11.9834688 2.52303523,12.0403794 2.6596206,12.0403794 C2.78482385,12.0403794 2.9100271,11.9948509 3.00867209,11.903794 L7.59566396,7.61273713 L8.8401084,8.72439024 C8.93875339,8.81165312 9.0601626,8.85338753 9.18157182,8.85338753 C9.30298103,8.85338753 9.42818428,8.80785908 9.52303523,8.72059621 L10.801626,7.57479675 L15.3620596,11.9075881 C15.4607046,12.002439 15.5897019,12.0479675 15.7149051,12.0479675 C15.8514905,12.0479675 15.9842818,11.9948509 16.0867209,11.8886179 C16.2802168,11.6837398 16.2726287,11.3574526 16.0677507,11.1639566 L11.5642276,6.88807588 Z" id="Shape"></path>
                            </g>
                        </g>
                    </g>
                </g>
            </g>
        </g>
    </g>
</svg>