<?xml version="1.0" encoding="UTF-8" ?>
<!DOCTYPE svg PUBLIC "-//W3C//DTD SVG 1.1//EN" "http://www.w3.org/Graphics/SVG/1.1/DTD/svg11.dtd">
<svg width="777pt" height="120pt" viewBox="0 0 777 120" version="1.1" xmlns="http://www.w3.org/2000/svg">
<g id="#ff9a00ff">
<path fill="#ff9a00" opacity="1.00" d=" M 143.41 14.62 C 152.44 12.16 162.99 16.70 166.48 25.59 C 169.98 34.62 169.97 45.59 165.12 54.14 C 158.92 64.81 142.17 65.99 134.09 56.90 C 127.99 50.14 127.49 40.27 128.72 31.68 C 129.87 23.84 135.39 16.35 143.41 14.62 M 145.40 22.60 C 140.62 24.10 138.71 29.44 138.34 34.00 C 138.00 39.91 137.69 46.57 141.37 51.59 C 145.02 56.48 153.58 55.98 156.51 50.56 C 159.64 44.57 159.23 37.37 158.20 30.89 C 157.43 24.96 151.26 20.42 145.40 22.60 Z" />
<path fill="#ff9a00" opacity="1.00" d=" M 178.52 62.45 C 178.37 46.49 178.34 30.53 178.53 14.57 C 187.53 15.24 196.97 13.21 205.65 16.26 C 215.59 19.76 218.28 34.53 210.33 41.34 C 204.22 46.64 195.65 45.35 188.20 45.66 C 188.31 51.23 188.25 56.81 188.25 62.38 C 185.01 62.39 181.76 62.40 178.52 62.45 M 188.22 22.68 C 188.29 27.65 188.25 32.62 188.27 37.59 C 192.48 37.43 196.84 38.13 200.94 36.96 C 207.04 34.85 206.04 24.44 199.91 23.01 C 196.06 22.24 192.11 22.66 188.22 22.68 Z" />
<path fill="#ff9a00" opacity="1.00" d=" M 224.16 14.64 C 234.81 14.61 245.46 14.62 256.11 14.64 C 256.12 17.29 256.11 19.95 256.06 22.61 C 248.71 22.60 241.36 22.59 234.01 22.61 C 233.99 26.40 233.99 30.20 234.01 33.99 C 240.31 34.01 246.61 33.97 252.92 34.01 C 252.91 36.57 252.91 39.14 252.91 41.71 C 246.61 41.69 240.31 41.69 234.01 41.71 C 233.99 45.96 233.99 50.22 234.01 54.48 C 241.37 54.49 248.72 54.53 256.08 54.45 C 256.18 57.09 256.20 59.74 256.18 62.38 C 245.50 62.42 234.83 62.41 224.15 62.39 C 224.17 46.47 224.17 30.56 224.16 14.64 Z" />
<path fill="#ff9a00" opacity="1.00" d=" M 264.50 62.47 C 264.29 46.50 264.26 30.51 264.51 14.54 C 267.72 14.63 270.94 14.64 274.16 14.61 C 280.66 25.03 286.89 35.63 293.41 46.03 C 293.40 35.56 293.39 25.10 293.42 14.63 C 296.67 14.62 299.93 14.62 303.19 14.64 C 303.24 30.56 303.21 46.47 303.21 62.39 C 299.88 62.42 296.56 62.42 293.25 62.32 C 287.00 51.88 280.70 41.48 274.25 31.16 C 274.14 41.57 274.27 51.97 274.18 62.38 C 270.95 62.39 267.72 62.40 264.50 62.47 Z" />
</g>
<g id="#ffffffff">
<path fill="#ffffff" opacity="1.00" d=" M 318.21 20.24 C 328.20 8.33 351.19 14.22 352.00 30.63 C 348.71 30.90 345.42 30.87 342.13 30.83 C 342.55 21.46 328.55 18.73 324.66 26.65 C 321.86 33.62 322.25 41.73 323.94 48.94 C 326.35 58.24 342.31 56.48 342.06 46.51 C 345.31 46.48 348.55 46.48 351.80 46.50 C 351.45 64.49 323.93 69.04 316.06 53.94 C 311.19 43.56 311.03 29.62 318.21 20.24 Z" />
<path fill="#ffffff" opacity="1.00" d=" M 374.42 14.61 C 384.55 11.76 395.98 18.07 398.49 28.38 C 400.90 38.04 400.65 49.82 393.47 57.47 C 384.42 66.91 366.26 63.85 361.51 51.40 C 356.26 38.62 358.82 18.43 374.42 14.61 M 376.38 22.59 C 371.55 24.10 369.63 29.51 369.29 34.11 C 368.97 39.99 368.65 46.62 372.34 51.61 C 376.02 56.53 384.69 55.95 387.54 50.42 C 390.49 44.74 390.12 37.97 389.35 31.80 C 388.87 25.56 382.64 20.25 376.38 22.59 Z" />
<path fill="#ffffff" opacity="1.00" d=" M 507.58 16.51 C 517.94 10.58 535.72 14.84 536.08 28.71 C 532.81 28.75 529.55 28.73 526.29 28.76 C 526.26 21.14 514.66 19.28 511.13 25.23 C 509.70 27.90 511.50 30.82 514.05 31.91 C 520.08 34.89 527.37 35.71 532.28 40.72 C 538.00 46.14 536.85 57.02 529.59 60.56 C 518.62 66.53 499.64 61.93 499.16 47.41 C 502.41 47.36 505.66 47.37 508.91 47.38 C 508.98 54.66 517.77 56.90 523.37 54.30 C 526.72 52.65 526.98 47.14 523.67 45.32 C 517.07 41.44 508.34 40.96 503.30 34.62 C 498.56 28.98 500.94 19.54 507.58 16.51 Z" />
<path fill="#ffffff" opacity="1.00" d=" M 4.23 14.67 C 8.53 14.60 12.83 14.62 17.13 14.63 C 21.24 26.15 25.26 37.71 29.41 49.22 C 33.51 37.69 37.49 26.12 41.65 14.60 C 45.93 14.64 50.21 14.63 54.50 14.61 C 54.56 30.54 54.55 46.48 54.50 62.41 C 51.22 62.40 47.94 62.40 44.66 62.38 C 44.44 50.55 45.12 38.74 45.64 26.92 C 41.29 38.71 37.02 50.53 32.79 62.37 C 30.53 62.39 28.26 62.40 26.00 62.41 C 21.69 50.73 17.64 38.95 13.21 27.32 C 13.55 39.01 14.40 50.69 14.09 62.39 C 10.81 62.41 7.52 62.41 4.24 62.36 C 4.28 46.46 4.29 30.57 4.23 14.67 Z" />
<path fill="#ffffff" opacity="1.00" d=" M 66.15 14.63 C 69.43 14.63 72.71 14.63 76.00 14.63 C 76.00 30.55 76.00 46.47 76.00 62.39 C 72.72 62.40 69.43 62.40 66.15 62.39 C 66.16 46.47 66.17 30.55 66.15 14.63 Z" />
<path fill="#ffffff" opacity="1.00" d=" M 83.63 14.63 C 96.59 14.61 109.54 14.64 122.50 14.61 C 122.53 17.27 122.53 19.94 122.54 22.60 C 117.66 22.60 112.79 22.60 107.91 22.61 C 107.88 35.87 107.90 49.13 107.90 62.40 C 104.61 62.40 101.32 62.40 98.03 62.39 C 98.02 49.13 98.05 35.87 98.02 22.60 C 93.21 22.59 88.40 22.64 83.59 22.55 C 83.62 19.91 83.62 17.27 83.63 14.63 Z" />
<path fill="#ffffff" opacity="1.00" d=" M 408.94 14.63 C 412.22 14.62 415.49 14.62 418.78 14.64 C 418.86 25.77 418.55 36.92 418.92 48.04 C 418.95 55.32 429.25 57.35 433.68 52.71 C 435.53 50.64 435.62 47.69 435.67 45.06 C 435.66 34.92 435.66 24.78 435.66 14.64 C 438.94 14.62 442.22 14.62 445.50 14.61 C 445.32 26.44 446.06 38.34 445.10 50.14 C 442.18 67.55 411.90 67.40 409.29 49.87 C 408.47 38.16 409.12 26.37 408.94 14.63 Z" />
<path fill="#ffffff" opacity="1.00" d=" M 456.01 14.63 C 465.38 15.24 475.36 12.98 484.25 16.79 C 494.51 21.64 493.43 38.45 482.94 42.48 C 486.38 49.13 490.00 55.68 493.37 62.38 C 489.81 62.41 486.25 62.39 482.70 62.42 C 479.65 56.62 476.71 50.77 473.73 44.93 C 471.10 44.92 468.48 44.91 465.86 44.91 C 465.85 50.74 465.85 56.57 465.86 62.40 C 462.57 62.40 459.29 62.40 456.01 62.40 C 456.00 46.47 456.00 30.55 456.01 14.63 M 465.86 22.61 C 465.85 27.38 465.85 32.16 465.86 36.93 C 469.62 36.80 473.50 37.38 477.20 36.41 C 482.79 34.66 482.97 25.58 477.75 23.30 C 473.92 22.08 469.81 22.75 465.86 22.61 Z" />
<path fill="#ffffff" opacity="1.00" d=" M 545.01 14.63 C 555.66 14.62 566.32 14.62 576.98 14.63 C 576.98 17.29 576.98 19.95 576.97 22.61 C 569.60 22.59 562.23 22.60 554.86 22.61 C 554.84 26.40 554.85 30.19 554.86 33.99 C 561.16 34.00 567.46 33.98 573.76 34.01 C 573.75 36.57 573.74 39.14 573.74 41.71 C 567.45 41.70 561.16 41.69 554.87 41.71 C 554.84 45.97 554.84 50.22 554.86 54.48 C 562.23 54.49 569.60 54.50 576.98 54.47 C 577.00 57.11 577.01 59.76 577.02 62.40 C 566.35 62.40 555.68 62.40 545.01 62.40 C 545.00 46.47 545.00 30.55 545.01 14.63 Z" />
<path fill="#ffffff" opacity="1.00" d=" M 582.09 14.63 C 585.36 14.63 588.63 14.62 591.91 14.63 C 594.06 25.87 596.14 37.13 598.36 48.36 C 601.05 37.14 603.63 25.89 606.20 14.65 C 609.02 14.60 611.84 14.61 614.67 14.71 C 617.15 25.98 619.73 37.21 622.45 48.42 C 624.60 37.16 626.70 25.89 628.84 14.63 C 632.10 14.62 635.37 14.62 638.63 14.63 C 635.13 30.56 631.59 46.48 628.04 62.40 C 624.73 62.40 621.43 62.40 618.12 62.39 C 615.59 51.79 613.01 41.21 610.41 30.64 C 607.55 41.21 605.37 51.96 602.43 62.50 C 599.18 62.37 595.94 62.38 592.71 62.41 C 589.12 46.49 585.65 30.55 582.09 14.63 Z" />
<path fill="#ffffff" opacity="1.00" d=" M 640.93 62.39 C 646.86 46.46 652.77 30.53 658.73 14.61 C 661.76 14.62 664.80 14.63 667.84 14.63 C 673.78 30.56 679.77 46.46 685.70 62.39 C 682.20 62.41 678.71 62.41 675.22 62.38 C 674.15 59.09 673.03 55.83 671.93 52.56 C 666.18 52.55 660.44 52.57 654.69 52.55 C 653.58 55.84 652.48 59.13 651.35 62.42 C 647.88 62.40 644.40 62.40 640.93 62.39 M 657.34 44.58 C 661.30 44.59 665.27 44.59 669.24 44.58 C 667.31 38.64 665.29 32.72 663.30 26.80 C 661.22 32.69 659.31 38.65 657.34 44.58 Z" />
<path fill="#ffffff" opacity="1.00" d=" M 692.59 14.62 C 702.03 15.26 712.14 12.91 721.04 16.92 C 731.08 21.88 729.93 38.48 719.52 42.43 C 722.92 49.12 726.54 55.69 729.97 62.36 C 726.37 62.42 722.78 62.40 719.19 62.38 C 716.21 56.53 713.27 50.66 710.19 44.86 C 707.59 44.91 705.00 44.93 702.42 44.96 C 702.42 50.77 702.43 56.59 702.41 62.40 C 699.13 62.40 695.86 62.40 692.59 62.40 C 692.57 46.47 692.56 30.55 692.59 14.62 M 702.41 36.92 C 706.37 36.77 710.51 37.50 714.34 36.19 C 719.61 33.93 719.28 24.95 713.86 23.12 C 710.13 22.21 706.24 22.72 702.46 22.59 C 702.39 27.37 702.43 32.15 702.41 36.92 Z" />
<path fill="#ffffff" opacity="1.00" d=" M 737.88 14.63 C 748.53 14.62 759.18 14.62 769.83 14.63 C 769.81 17.29 769.82 19.95 769.82 22.61 C 762.45 22.60 755.08 22.60 747.72 22.61 C 747.70 26.40 747.70 30.19 747.71 33.99 C 754.01 34.01 760.32 33.97 766.62 34.02 C 766.60 36.58 766.60 39.14 766.61 41.70 C 760.31 41.70 754.01 41.69 747.71 41.71 C 747.70 45.97 747.70 50.22 747.72 54.48 C 755.10 54.49 762.49 54.50 769.89 54.48 C 769.88 57.12 769.88 59.76 769.90 62.40 C 759.23 62.40 748.56 62.41 737.89 62.39 C 737.85 46.47 737.86 30.55 737.88 14.63 Z" />
<path fill="#ffffff" opacity="1.00" d=" M 3.23 83.10 C 3.93 83.10 5.33 83.09 6.03 83.08 C 8.91 91.01 11.32 99.11 14.46 106.93 C 17.02 99.00 19.95 91.18 22.51 83.25 C 23.24 83.18 24.70 83.05 25.43 82.99 C 25.49 92.12 25.47 101.26 25.45 110.39 L 23.36 110.44 C 23.25 102.57 23.37 94.70 23.51 86.83 C 20.02 94.77 18.68 103.82 13.97 111.08 C 10.66 103.29 8.38 95.11 5.24 87.25 C 5.25 95.05 5.47 102.84 5.32 110.63 C 4.81 110.49 3.79 110.21 3.28 110.07 C 3.13 101.08 3.27 92.09 3.23 83.10 Z" />
<path fill="#ffffff" opacity="1.00" d=" M 40.21 82.76 C 42.69 82.88 42.75 85.64 43.47 87.42 C 45.79 95.23 48.61 102.89 50.70 110.77 C 46.92 110.16 47.51 105.51 46.18 102.77 C 42.77 102.76 39.36 102.77 35.95 102.76 C 34.57 105.45 35.25 110.34 31.42 110.71 C 34.11 101.32 37.26 92.07 40.21 82.76 M 36.57 100.76 C 39.54 100.75 42.52 100.76 45.49 100.82 C 44.13 95.96 42.63 91.15 41.07 86.36 C 39.43 91.11 38.04 95.95 36.57 100.76 Z" />
<path fill="#ffffff" opacity="1.00" d=" M 56.05 87.17 C 59.30 79.43 72.03 82.77 71.31 91.15 C 68.16 91.49 68.96 87.48 66.99 86.07 C 63.78 83.27 57.30 85.20 57.73 89.98 C 58.22 94.95 64.29 95.10 67.66 97.32 C 72.79 99.85 72.36 108.35 66.82 110.14 C 61.77 112.69 52.38 107.81 56.01 101.80 C 57.07 105.75 60.18 109.86 64.81 108.61 C 70.15 108.13 70.50 99.84 65.39 98.58 C 60.44 97.06 53.36 93.59 56.05 87.17 Z" />
<path fill="#ffffff" opacity="1.00" d=" M 79.41 84.49 C 84.54 80.05 93.23 84.45 92.59 91.27 C 89.16 91.23 90.35 86.53 87.50 85.50 C 83.84 83.31 77.97 86.17 79.18 90.82 C 81.00 96.19 88.57 95.04 91.43 99.56 C 93.99 103.08 92.37 108.69 88.20 110.12 C 82.94 112.61 74.54 108.17 76.74 101.77 C 78.41 106.97 85.05 111.75 89.54 106.58 C 92.98 101.24 86.57 97.85 82.27 96.72 C 76.96 95.39 74.87 87.90 79.41 84.49 Z" />
<path fill="#ffffff" opacity="1.00" d=" M 105.32 83.04 C 105.84 83.09 106.87 83.18 107.39 83.23 C 110.16 92.41 113.28 101.48 116.00 110.67 C 112.12 110.31 112.77 105.37 111.29 102.70 C 107.90 102.78 104.51 102.77 101.12 102.78 C 99.74 105.38 100.52 110.58 96.63 110.60 C 99.37 101.37 102.45 92.24 105.32 83.04 M 101.79 100.76 C 104.79 100.77 107.78 100.77 110.78 100.76 C 109.29 95.95 107.85 91.12 106.33 86.32 C 104.65 91.08 103.28 95.94 101.79 100.76 Z" />
<path fill="#ffffff" opacity="1.00" d=" M 122.47 86.45 C 126.74 79.31 138.52 83.28 137.82 91.61 C 137.29 91.63 136.24 91.66 135.71 91.68 C 136.24 85.50 127.80 82.07 124.34 87.38 C 121.99 92.83 122.42 99.46 123.83 105.13 C 126.26 111.54 136.47 108.76 135.67 101.93 C 136.21 101.97 137.30 102.04 137.85 102.08 C 138.37 110.49 126.19 114.18 122.27 106.70 C 119.87 100.44 119.72 92.62 122.47 86.45 Z" />
<path fill="#ffffff" opacity="1.00" d=" M 144.55 83.00 C 145.09 83.04 146.15 83.13 146.69 83.17 C 146.65 87.23 146.67 91.28 146.67 95.33 C 150.94 95.34 155.21 95.34 159.48 95.34 C 159.49 91.26 159.50 87.18 159.49 83.09 C 160.02 83.09 161.10 83.09 161.63 83.09 C 161.60 92.03 161.75 100.98 161.59 109.91 C 161.09 110.12 160.08 110.54 159.58 110.74 C 159.42 106.28 159.50 101.80 159.50 97.34 C 155.19 97.35 150.87 97.22 146.57 97.47 C 145.64 101.54 149.04 108.81 144.60 110.68 C 144.46 101.46 144.54 92.23 144.55 83.00 Z" />
<path fill="#ffffff" opacity="1.00" d=" M 169.24 83.14 C 169.77 83.11 170.83 83.06 171.37 83.04 C 171.57 90.21 171.02 97.42 171.64 104.57 C 172.66 110.42 182.82 110.08 183.17 104.00 C 183.56 97.07 183.23 90.11 183.31 83.17 C 183.85 83.13 184.92 83.04 185.46 83.00 C 185.32 90.32 185.88 97.68 185.18 104.96 C 184.03 112.85 170.21 112.66 169.47 104.64 C 168.94 97.49 169.40 90.30 169.24 83.14 Z" />
<path fill="#ffffff" opacity="1.00" d=" M 192.69 92.33 C 190.67 87.62 195.08 82.31 200.01 82.74 C 204.53 82.56 207.82 86.66 208.07 90.91 C 207.51 90.88 206.40 90.82 205.84 90.79 C 205.58 87.31 202.76 84.03 199.00 84.87 C 194.98 84.86 192.82 90.46 195.86 93.08 C 199.50 96.20 205.93 96.05 207.66 101.26 C 209.87 107.03 203.42 112.27 198.00 110.48 C 194.40 110.39 189.27 104.53 193.13 102.14 C 193.76 105.93 196.77 109.53 200.97 108.68 C 205.07 108.73 207.33 103.32 204.68 100.33 C 201.16 96.97 194.81 97.30 192.69 92.33 Z" />
<path fill="#ffffff" opacity="1.00" d=" M 214.35 83.11 C 219.26 83.14 224.18 82.95 229.08 83.28 C 226.71 87.20 220.43 84.22 216.49 85.13 C 216.48 88.54 216.48 91.96 216.53 95.37 C 219.91 96.25 226.10 93.24 227.39 97.28 C 223.76 97.35 220.12 97.33 216.49 97.33 C 216.49 101.03 216.48 104.72 216.51 108.42 C 220.61 108.40 224.71 108.40 228.81 108.45 C 228.74 108.94 228.60 109.93 228.53 110.42 C 223.82 110.39 219.12 110.37 214.42 110.44 C 214.26 101.33 214.40 92.22 214.35 83.11 Z" />
<path fill="#ffffff" opacity="1.00" d=" M 232.93 83.19 C 238.94 83.01 244.95 83.12 250.95 83.11 C 250.94 83.62 250.92 84.62 250.91 85.12 C 248.32 85.12 245.74 85.13 243.15 85.14 C 243.16 93.55 243.15 101.96 243.16 110.37 C 242.62 110.38 241.54 110.40 241.00 110.41 C 241.00 101.98 241.01 93.55 241.00 85.12 C 238.43 84.48 233.44 86.83 232.93 83.19 Z" />
<path fill="#ffffff" opacity="1.00" d=" M 254.99 83.12 C 261.01 83.12 267.04 83.01 273.06 83.20 C 272.49 86.79 267.55 84.50 264.98 85.13 C 264.95 93.56 264.98 101.99 264.97 110.41 C 264.43 110.40 263.34 110.37 262.80 110.36 C 262.80 101.95 262.80 93.54 262.80 85.13 C 260.22 85.13 257.64 85.12 255.07 85.12 C 255.05 84.62 255.01 83.62 254.99 83.12 Z" />
<path fill="#ffffff" opacity="1.00" d=" M 278.04 87.16 C 281.30 79.43 294.01 82.77 293.31 91.15 C 289.90 91.46 291.03 86.77 288.40 85.66 C 284.74 83.14 278.48 86.12 279.87 90.94 C 282.02 96.66 290.96 95.01 292.90 101.12 C 295.01 106.29 289.83 111.67 284.61 110.68 C 280.43 110.84 274.87 105.90 278.03 101.81 C 279.05 105.77 282.19 109.85 286.81 108.61 C 292.14 108.13 292.49 99.85 287.39 98.59 C 282.44 97.06 275.35 93.59 278.04 87.16 Z" />
<path fill="#ffffff" opacity="1.00" d=" M 310.15 83.09 C 310.68 83.10 311.74 83.10 312.27 83.10 C 312.20 92.11 312.43 101.12 312.18 110.11 C 311.67 110.24 310.66 110.48 310.15 110.60 C 310.14 101.43 310.14 92.26 310.15 83.09 Z" />
<path fill="#ffffff" opacity="1.00" d=" M 320.66 82.78 C 322.16 82.89 323.32 83.66 323.89 85.07 C 327.80 92.15 331.66 99.25 335.65 106.29 C 335.70 98.54 335.65 90.80 335.68 83.06 C 336.21 83.07 337.26 83.10 337.79 83.12 C 337.73 92.12 337.90 101.13 337.72 110.13 C 337.29 110.20 336.42 110.33 335.98 110.40 C 331.08 103.16 327.56 95.02 322.87 87.61 C 322.60 95.10 322.93 102.60 322.71 110.08 C 322.20 110.23 321.17 110.51 320.66 110.65 C 320.59 101.36 320.59 92.07 320.66 82.78 Z" />
<path fill="#ffffff" opacity="1.00" d=" M 345.55 92.57 C 343.41 88.15 347.24 82.78 351.99 82.77 C 356.84 82.14 361.05 86.60 360.63 91.38 C 357.18 90.93 358.36 85.83 354.89 85.18 C 350.31 82.89 344.69 88.57 348.27 92.74 C 352.40 96.42 361.28 96.55 360.75 103.96 C 360.26 113.85 343.54 112.27 344.16 102.54 C 344.65 102.56 345.62 102.62 346.11 102.64 C 346.65 106.38 349.87 109.47 353.81 108.68 C 357.82 108.65 359.99 103.45 357.53 100.45 C 354.12 96.97 347.79 97.40 345.55 92.57 Z" />
<path fill="#ffffff" opacity="1.00" d=" M 365.03 83.11 C 371.04 83.12 377.05 83.01 383.06 83.19 C 382.53 86.82 377.55 84.49 374.99 85.13 C 374.96 93.55 374.99 101.98 374.98 110.41 C 374.44 110.40 373.35 110.38 372.81 110.37 C 372.81 101.95 372.81 93.54 372.81 85.13 C 370.23 85.13 367.66 85.12 365.08 85.12 C 365.07 84.62 365.04 83.62 365.03 83.11 Z" />
<path fill="#ffffff" opacity="1.00" d=" M 389.04 83.04 C 389.56 83.06 390.60 83.11 391.13 83.13 C 391.05 92.13 391.28 101.13 391.02 110.12 C 390.53 110.25 389.53 110.51 389.04 110.64 C 388.98 101.44 388.98 92.24 389.04 83.04 Z" />
<path fill="#ffffff" opacity="1.00" d=" M 396.87 83.10 C 402.92 83.16 408.98 82.94 415.03 83.26 C 413.97 86.62 409.38 84.59 406.78 85.13 C 406.72 93.46 406.89 101.79 406.72 110.11 C 406.20 110.24 405.17 110.50 404.66 110.63 C 404.58 102.13 404.64 93.64 404.63 85.14 C 402.05 85.13 399.47 85.12 396.89 85.12 C 396.89 84.61 396.87 83.61 396.87 83.10 Z" />
<path fill="#ffffff" opacity="1.00" d=" M 420.06 83.04 C 420.59 83.07 421.65 83.11 422.18 83.14 C 422.35 90.31 421.80 97.52 422.46 104.67 C 423.56 110.43 433.58 110.02 433.95 104.04 C 434.37 97.07 433.99 90.06 434.13 83.08 C 434.67 83.09 435.74 83.10 436.28 83.10 C 436.09 90.40 436.67 97.74 435.97 105.01 C 434.77 112.72 421.33 112.70 420.31 104.90 C 419.67 97.64 420.17 90.32 420.06 83.04 Z" />
<path fill="#ffffff" opacity="1.00" d=" M 441.74 83.10 C 447.58 83.17 453.43 82.96 459.27 83.18 C 460.04 86.80 453.89 84.49 451.66 85.12 C 451.59 93.35 451.79 101.59 451.59 109.82 C 451.09 110.04 450.08 110.48 449.58 110.69 C 449.42 102.18 449.54 93.66 449.51 85.14 C 446.94 85.13 444.36 85.12 441.80 85.11 C 441.78 84.61 441.75 83.60 441.74 83.10 Z" />
<path fill="#ffffff" opacity="1.00" d=" M 465.29 83.11 C 470.20 83.13 475.12 82.96 480.03 83.26 C 477.67 87.23 471.38 84.20 467.43 85.13 C 467.42 88.54 467.42 91.96 467.49 95.37 C 470.98 95.33 474.46 95.34 477.96 95.33 C 477.98 95.83 478.02 96.82 478.05 97.32 C 474.51 97.33 470.97 97.33 467.44 97.33 C 467.43 101.03 467.42 104.73 467.47 108.43 C 471.68 108.42 475.90 108.29 480.11 108.59 C 476.95 112.36 469.97 109.61 465.21 110.29 C 465.40 101.23 465.25 92.17 465.29 83.11 Z" />
<path fill="#ffffff" opacity="1.00" d=" M 500.39 83.49 C 505.63 80.92 512.24 84.70 512.61 90.54 C 512.88 96.38 514.14 103.27 510.27 108.23 C 505.57 113.49 495.84 110.07 495.54 102.95 C 495.26 96.48 493.50 87.18 500.39 83.49 M 501.33 85.35 C 495.51 88.85 497.63 96.95 497.62 102.59 C 497.67 108.40 505.99 111.05 509.23 106.21 C 511.68 101.64 510.67 96.12 510.55 91.15 C 510.50 86.58 505.48 83.35 501.33 85.35 Z" />
<path fill="#ffffff" opacity="1.00" d=" M 520.12 83.10 C 524.94 83.10 529.76 83.08 534.59 83.12 C 533.04 87.33 526.10 84.16 522.26 85.13 C 522.26 88.64 522.26 92.15 522.27 95.67 C 525.79 95.65 529.31 95.65 532.84 95.70 C 532.81 96.20 532.77 97.19 532.74 97.69 C 529.24 97.68 525.74 97.69 522.25 97.71 C 522.27 101.92 522.25 106.13 522.27 110.35 C 521.73 110.36 520.64 110.39 520.10 110.41 C 520.15 101.31 520.11 92.21 520.12 83.10 Z" />
<path fill="#ffffff" opacity="1.00" d=" M 547.74 83.10 C 553.57 83.17 559.41 82.95 565.24 83.18 C 566.09 86.78 559.87 84.51 557.66 85.12 C 557.59 93.37 557.77 101.62 557.60 109.86 C 557.09 110.07 556.09 110.50 555.58 110.71 C 555.41 102.19 555.53 93.66 555.51 85.14 C 552.93 85.13 550.36 85.12 547.79 85.11 C 547.78 84.61 547.75 83.60 547.74 83.10 Z" />
<path fill="#ffffff" opacity="1.00" d=" M 571.29 83.11 C 576.19 83.13 581.10 82.97 586.00 83.25 C 583.73 87.23 577.35 84.20 573.43 85.13 C 573.42 88.55 573.41 91.96 573.49 95.38 C 576.98 95.33 580.46 95.34 583.95 95.33 C 583.98 95.83 584.03 96.82 584.05 97.32 C 580.51 97.33 576.97 97.33 573.43 97.33 C 573.42 101.03 573.42 104.73 573.47 108.43 C 577.68 108.42 581.90 108.29 586.10 108.59 C 582.95 112.37 575.97 109.60 571.21 110.29 C 571.40 101.23 571.25 92.17 571.29 83.11 Z" />
<path fill="#ffffff" opacity="1.00" d=" M 591.57 90.18 C 592.04 83.09 602.17 79.97 606.40 85.65 C 607.48 87.45 609.51 91.17 606.50 92.15 C 606.19 87.82 602.92 83.37 598.07 85.00 C 591.59 87.67 593.59 96.30 593.58 101.83 C 593.37 106.73 598.63 110.59 603.11 108.05 C 606.37 107.00 604.54 101.48 608.34 101.65 C 608.79 108.11 601.88 113.03 596.06 109.91 C 589.48 105.81 591.19 96.71 591.57 90.18 Z" />
<path fill="#ffffff" opacity="1.00" d=" M 615.10 83.05 C 615.62 83.07 616.68 83.09 617.21 83.10 C 617.20 87.18 617.21 91.25 617.20 95.33 C 621.47 95.35 625.74 95.34 630.01 95.34 C 630.01 91.24 630.01 87.14 630.05 83.04 C 630.59 83.06 631.66 83.11 632.19 83.14 C 632.18 92.21 632.19 101.29 632.19 110.37 C 631.64 110.38 630.56 110.40 630.02 110.41 C 630.02 106.05 630.03 101.68 629.99 97.32 C 625.73 97.33 621.47 97.33 617.21 97.33 C 617.20 101.67 617.20 106.01 617.21 110.36 C 616.67 110.37 615.60 110.40 615.07 110.42 C 615.09 101.30 615.03 92.18 615.10 83.05 Z" />
<path fill="#ffffff" opacity="1.00" d=" M 640.21 82.92 C 640.79 83.02 641.94 83.21 642.51 83.30 C 646.64 90.93 650.77 98.57 655.16 106.06 C 655.29 98.41 655.19 90.77 655.22 83.12 C 655.74 83.11 656.80 83.07 657.33 83.05 C 657.33 92.26 657.38 101.46 657.30 110.66 C 656.79 110.52 655.75 110.25 655.23 110.11 C 650.63 102.71 646.79 94.83 642.36 87.32 C 642.25 95.09 642.37 102.85 642.29 110.62 C 641.78 110.50 640.75 110.26 640.23 110.14 C 640.08 101.07 640.16 91.99 640.21 82.92 Z" />
<path fill="#ffffff" opacity="1.00" d=" M 670.26 83.27 C 676.60 80.62 682.81 86.64 682.20 93.00 C 682.53 99.30 683.10 109.43 674.83 110.66 C 669.09 111.88 664.38 106.46 664.65 100.99 C 664.53 94.93 663.34 86.09 670.26 83.27 M 670.39 85.48 C 664.70 89.50 666.86 97.96 667.23 103.88 C 668.42 110.68 679.49 110.02 679.77 103.06 C 680.99 96.30 681.18 81.71 670.39 85.48 Z" />
<path fill="#ffffff" opacity="1.00" d=" M 689.46 83.07 C 689.99 83.08 691.07 83.10 691.60 83.11 C 691.62 91.54 691.60 99.98 691.61 108.41 C 695.22 109.40 701.66 106.23 703.26 110.33 C 698.66 110.45 694.07 110.38 689.49 110.41 C 689.41 101.30 689.47 92.18 689.46 83.07 Z" />
<path fill="#ffffff" opacity="1.00" d=" M 712.29 83.34 C 717.71 80.95 724.06 85.16 724.23 91.01 C 724.38 96.80 725.72 103.77 721.55 108.52 C 716.71 113.38 707.45 109.93 707.10 103.01 C 706.79 96.46 705.00 86.80 712.29 83.34 M 713.22 85.22 C 707.08 88.24 709.21 96.51 709.10 102.04 C 708.80 107.88 716.87 111.19 720.53 106.56 C 723.34 101.95 722.20 96.13 722.08 91.00 C 721.96 86.64 717.28 83.51 713.22 85.22 Z" />
<path fill="#ffffff" opacity="1.00" d=" M 733.10 86.06 C 737.39 79.69 748.95 82.95 748.24 91.09 C 745.26 91.22 745.91 87.43 744.01 86.04 C 740.52 83.33 734.43 85.04 733.78 89.71 C 733.22 94.86 732.57 100.49 734.54 105.41 C 736.70 109.85 742.58 109.25 746.13 106.95 C 746.13 104.45 746.13 101.94 746.12 99.44 C 744.02 98.93 740.07 100.73 739.74 97.55 C 742.58 97.38 745.43 97.39 748.29 97.40 C 748.07 100.82 748.86 104.45 747.87 107.74 C 743.34 112.70 733.30 111.48 731.81 104.29 C 731.03 98.34 730.15 91.56 733.10 86.06 Z" />
<path fill="#ffffff" opacity="1.00" d=" M 753.43 82.87 C 759.32 84.49 759.29 93.25 762.75 97.86 C 765.01 93.00 767.25 88.13 769.43 83.23 C 770.07 83.16 771.34 83.03 771.98 82.96 C 769.49 89.06 765.75 94.69 763.83 100.98 C 762.78 104.01 765.93 110.11 761.67 110.63 C 763.71 100.28 757.26 91.85 753.43 82.87 Z" />
</g>
</svg>
