<svg xmlns="http://www.w3.org/2000/svg" width="24" height="24" viewBox="0 0 24 24" fill="none">
  <path d="M3.41436 6.00007L5.70726 3.70718L4.29304 2.29297L0.585938 6.00007L4.29304 9.70718L5.70726 8.29297L3.41436 6.00007ZM9.58594 6.00007L7.29304 3.70718L8.70726 2.29297L12.4144 6.00007L8.70726 9.70718L7.29304 8.29297L9.58594 6.00007ZM14.0002 3.00007H21.0002C21.5524 3.00007 22.0002 3.44779 22.0002 4.00007V20.0001C22.0002 20.5523 21.5524 21.0001 21.0002 21.0001H3.00015C2.44787 21.0001 2.00015 20.5523 2.00015 20.0001V12.0001H4.00015V19.0001H20.0002V5.00007H14.0002V3.00007Z" fill="#212326"/>
</svg>