<svg xmlns="http://www.w3.org/2000/svg" viewBox="0 0 24 24" fill="currentColor">
  <path fill="none" d="M0 0h24v24H0z"></path><path d="M12 1C14.7614 1 17 3.23858 17 6V10C17 12.7614 14.7614 15 12 15C9.23858 15 7 12.7614 7 10V6C7 3.23858 9.23858 1 12 1ZM12 3C10.3431 3 9 4.34315 9 6V10C9 11.6569 10.3431 13 12 13C13.6569 13 15 11.6569 15 10V6C15 4.34315 13.6569 3 12 3ZM1 10H3C3 14.9706 7.02944 19 12 19C16.9706 19 21 14.9706 21 10H23C23 16.0751 18.3349 20.6753 12.5631 20.9776L12 21V23H12V21C5.92487 20.6753 1 16.0751 1 10ZM11 21V23H13V21H11Z"></path>
</svg>
