<svg xmlns="http://www.w3.org/2000/svg" viewBox="0 0 24 24" fill="currentColor" class="remixicon"><path d="M10.9042 2.10025L20.8037 3.51446L22.2179 13.414L13.0255 22.6063C12.635 22.9969 12.0019 22.9969 11.6113 22.6063L1.71184 12.7069C1.32131 12.3163 1.32131 11.6832 1.71184 11.2926L10.9042 2.10025ZM11.6113 4.22157L3.83316 11.9997L12.3184 20.485L20.0966 12.7069L19.0361 5.28208L11.6113 4.22157ZM13.7327 10.5854C12.9516 9.80433 12.9516 8.53801 13.7327 7.75696C14.5137 6.9759 15.78 6.9759 16.5611 7.75696C17.3421 8.53801 17.3421 9.80433 16.5611 10.5854C15.78 11.3664 14.5137 11.3664 13.7327 10.5854Z"></path></svg>
