<svg xmlns="http://www.w3.org/2000/svg" viewBox="0 0 24 24" fill="currentColor" class="remixicon"><path d="M14.5998 8H21C21.5523 8 22 8.44772 22 9V11.5C22 11.6712 21.9605 11.8402 21.8848 11.9943L18.5515 18.6568C18.3731 19.0133 18.0086 19.2431 17.6035 19.25H3C2.44772 19.25 2 18.8023 2 18.25V10.25C2 9.69772 2.44772 9.25 3 9.25H6.47501C6.65988 9.25 6.84008 9.19276 6.99005 9.08608L12.0155 5.51659C12.1878 5.39408 12.4096 5.3563 12.6135 5.41526L13.1373 5.56722C13.6558 5.71781 14 6.19779 14 6.73914V8H14.5998ZM4 11.25V17.25H6.5V11.25H4ZM8.5 17.25H17.1553L20 11.6L20.0002 10H14.5998C13.4952 10 12.5998 9.10457 12.5998 8V7.03514L8.5 9.94114V17.25Z"></path></svg>
