<svg xmlns="http://www.w3.org/2000/svg" viewBox="0 0 24 24" fill="currentColor">
  <path fill="none" d="M0 0h24v24H0z"></path><path d="M5.32894 3.27158C6.56203 2.8332 7.99181 3.10749 8.97065 4.08632C9.7751 4.89077 10.1272 5.97603 10.0271 7.03522L16.5 13.5074L17.7929 12.2145L19.2071 13.6287L17.9142 14.9216L21.0607 18.0681C21.8417 18.8492 21.8417 20.1155 21.0607 20.8966C20.2796 21.6776 19.0133 21.6776 18.2322 20.8966L15.0858 17.7501L13.7929 19.043L12.3787 17.6287L13.6716 16.3358L7.19921 9.8634C6.1126 9.94113 5.00609 9.58073 4.18632 8.76096C3.20749 7.78213 2.9332 6.35235 3.37158 5.11926L5.60156 7.34924C6.37261 8.12029 7.62267 8.12029 8.39372 7.34924C9.16477 6.57819 9.16477 5.32813 8.39372 4.55708L6.16374 2.3271L5.32894 3.27158ZM15.6963 5.27158L17.8284 3.1394C18.2189 2.74888 18.8521 2.74888 19.2426 3.1394L20.6568 4.55362C21.0474 4.94414 21.0474 5.5773 20.6568 5.96783L18.5247 8.09999L15.6963 5.27158Z"></path>
</svg>
