<svg width="12" height="12" viewBox="0 0 21 21" fill="none" xmlns="http://www.w3.org/2000/svg">
  <g clip-path="url(#clip0_180_108)">
    <path d="M20.125 1.40114e-06H11.375C11.2017 -0.000308638 11.0323 0.0508411 10.8881 0.146966C10.7439 0.243091 10.6315 0.379862 10.5651 0.539941C10.4988 0.700019 10.4815 0.876195 10.5154 1.04613C10.5492 1.21607 10.6328 1.37212 10.7555 1.4945L13.8933 4.6305L9.26277 9.26275C9.09563 9.42418 8.96231 9.61729 8.87059 9.83079C8.77888 10.0443 8.7306 10.2739 8.72858 10.5063C8.72656 10.7387 8.77084 10.9691 8.85883 11.1842C8.94682 11.3992 9.07677 11.5946 9.24108 11.7589C9.40539 11.9233 9.60078 12.0532 9.81585 12.1412C10.0309 12.2292 10.2614 12.2735 10.4937 12.2714C10.7261 12.2694 10.9557 12.2211 11.1692 12.1294C11.3827 12.0377 11.5758 11.9044 11.7373 11.7372L16.3695 7.10675L19.5055 10.2445C19.5869 10.3257 19.6835 10.3901 19.7898 10.4339C19.8961 10.4777 20.01 10.5002 20.125 10.5C20.2397 10.4994 20.3531 10.4768 20.4593 10.4335C20.6193 10.3674 20.7561 10.2552 20.8523 10.1113C20.9486 9.96739 21 9.79815 21 9.625V0.875001C21 0.642937 20.9078 0.420377 20.7437 0.256283C20.5796 0.0921886 20.3571 1.40114e-06 20.125 1.40114e-06Z" fill="#344055"/>
    <path d="M19.25 14C18.7859 14 18.3408 14.1844 18.0126 14.5126C17.6844 14.8408 17.5 15.2859 17.5 15.75V17.5H3.5V3.5H5.25C5.71413 3.5 6.15925 3.31563 6.48744 2.98744C6.81563 2.65925 7 2.21413 7 1.75C7 1.28587 6.81563 0.840752 6.48744 0.512563C6.15925 0.184374 5.71413 0 5.25 0L3.5 0C2.57174 0 1.6815 0.368749 1.02513 1.02513C0.368749 1.6815 0 2.57174 0 3.5L0 17.5C0 18.4283 0.368749 19.3185 1.02513 19.9749C1.6815 20.6313 2.57174 21 3.5 21H17.5C18.4283 21 19.3185 20.6313 19.9749 19.9749C20.6313 19.3185 21 18.4283 21 17.5V15.75C21 15.2859 20.8156 14.8408 20.4874 14.5126C20.1592 14.1844 19.7141 14 19.25 14Z" fill="#344055"/>
  </g>
  <defs>
    <clipPath id="clip0_180_108">
      <rect width="21" height="21" fill="white"/>
    </clipPath>
  </defs>
</svg>
