<svg width="12" height="12" viewBox="0 0 21 21" fill="none" xmlns="http://www.w3.org/2000/svg"><g clip-path="url(#a)" fill="#344055"><path d="M20.125 0h-8.75a.875.875 0 0 0-.62 1.494l3.138 3.136-4.63 4.633a1.75 1.75 0 1 0 2.474 2.474l4.632-4.63 3.137 3.138a.874.874 0 0 0 1.346-.134.874.874 0 0 0 .148-.486V.875A.875.875 0 0 0 20.125 0Z"/><path d="M19.25 14a1.75 1.75 0 0 0-1.75 1.75v1.75h-14v-14h1.75a1.75 1.75 0 1 0 0-3.5H3.5A3.5 3.5 0 0 0 0 3.5v14A3.5 3.5 0 0 0 3.5 21h14a3.5 3.5 0 0 0 3.5-3.5v-1.75A1.75 1.75 0 0 0 19.25 14Z"/></g><defs><clipPath id="a"><path fill="#fff" d="M0 0h21v21H0z"/></clipPath></defs></svg>
