<svg width="15" height="13" viewBox="0 0 15 13" fill="none" xmlns="http://www.w3.org/2000/svg">
<path d="M7.68499 13C7.63818 13 7.59187 12.9904 7.54892 12.9719C7.50596 12.9533 7.46728 12.926 7.43527 12.8919L1.61175 6.67157C1.2318 6.28052 0.937347 5.8147 0.747098 5.30374C0.556848 4.79277 0.474962 4.24781 0.506642 3.70349C0.538322 3.15917 0.682876 2.6274 0.931119 2.14195C1.17936 1.6565 1.52587 1.22799 1.94861 0.883655C2.37136 0.539317 2.86111 0.286677 3.38675 0.141787C3.91238 -0.00310349 4.46241 -0.0370758 5.00188 0.0420282C5.54135 0.121132 6.05847 0.311583 6.52038 0.601279C6.98229 0.890976 7.37889 1.27358 7.68499 1.72479C7.99121 1.27327 8.38805 0.890424 8.85027 0.600607C9.31249 0.310788 9.82998 0.120345 10.3698 0.0413892C10.9096 -0.0375661 11.46 -0.00330427 11.9858 0.141995C12.5117 0.287295 13.0016 0.540451 13.4243 0.88536C13.847 1.23027 14.1933 1.65938 14.4411 2.1454C14.689 2.63141 14.833 3.1637 14.8639 3.70839C14.8949 4.25307 14.8121 4.79824 14.621 5.30922C14.4298 5.82019 14.1343 6.28577 13.7534 6.67636L7.9347 12.8919C7.90269 12.926 7.86401 12.9533 7.82105 12.9719C7.7781 12.9904 7.73179 13 7.68499 13Z" fill="#690011"/>
</svg>
