<?xml version="1.0" encoding="UTF-8"?>
<svg width="49px" height="43px" viewBox="0 0 49 43" version="1.1" xmlns="http://www.w3.org/2000/svg" xmlns:xlink="http://www.w3.org/1999/xlink">
    <!-- Generator: Sketch 63.1 (92452) - https://sketch.com -->
    <title>Group 7</title>
    <desc>Created with Sketch.</desc>
    <defs>
        <polygon id="path-1" points="0.179552732 0.0914938108 48.9809952 0.0914938108 48.9809952 42.9182959 0.179552732 42.9182959"></polygon>
    </defs>
    <g id="Page-1" stroke="none" stroke-width="1" fill="none" fill-rule="evenodd">
        <g id="OCW-NexGen-Homepage-07/27/2020-Updates-(Shareable-prototype)-Expanded" transform="translate(-1031.000000, -1694.000000)">
            <g id="Group-14" transform="translate(279.000000, 1652.000000)">
                <g id="Group-13" transform="translate(723.000000, 30.000000)">
                    <g id="Group-11" transform="translate(29.000000, 12.000000)">
                        <g id="Group-7">
                            <g id="Group-3">
                                <mask id="mask-2" fill="white">
                                    <use xlink:href="#path-1"></use>
                                </mask>
                                <g id="Clip-2"></g>
                                <path d="M5.18345321,10.0458645 C5.18930526,10.7499278 5.60772683,11.2651674 6.21780303,11.4086148 C6.74741355,11.5315697 7.37797193,11.2139362 7.63107308,10.6591753 C8.23237121,9.34180133 9.06482531,8.28351088 10.5015036,7.77705376 C11.1613222,7.54285393 11.4202754,6.76413952 11.1583962,6.13326375 C10.906758,5.52288046 10.2176791,5.19207321 9.58126872,5.3984618 C7.39552807,6.10545252 6.07881684,7.69801132 5.21856551,9.73994103 C5.1702861,9.85704094 5.18784225,10.0048796 5.18345321,10.0458645 M24.5800726,4.79393351 C26.1235508,2.92179867 27.9976698,1.55904845 30.2726542,0.831565252 C34.9616092,-0.66292237 39.280422,0.093835809 43.1135147,3.20283846 C46.2780107,5.77025402 48.0921462,9.15005022 48.7417237,13.1534034 C49.5039532,17.8461824 48.4052308,22.1642416 46.0132054,26.2012611 C44.3482972,29.0145865 42.1172032,31.3507297 39.7398079,33.5565993 C36.464123,36.6026607 32.8855945,39.21838 28.8506061,41.1695573 C27.5631551,41.7901868 26.2303507,42.3186002 24.9063244,42.8631148 C24.7161328,42.9421572 24.4410865,42.931911 24.2435798,42.8601873 C19.7184822,41.200296 15.6264363,38.7880378 11.9118476,35.7229477 C9.43496747,33.6795542 7.10292558,31.4941771 5.08982041,28.9867752 C2.73437032,26.0578137 1.02703476,22.7921899 0.443292781,19.0625577 C-0.485720143,13.138766 1.0080156,7.9190374 5.42631328,3.72832431 C7.54768137,1.71566958 10.0991751,0.506612997 13.0500713,0.208008223 C17.3235307,-0.223797701 20.9810619,1.0364901 23.9890156,4.12060902 C24.1894483,4.32699761 24.3693988,4.55241494 24.5800726,4.79393351" id="Fill-1" fill="#BBBBBB" mask="url(#mask-2)"></path>
                            </g>
                        </g>
                    </g>
                </g>
            </g>
        </g>
    </g>
</svg>