<svg width="233" height="52" viewBox="0 0 233 52" fill="none" xmlns="http://www.w3.org/2000/svg">
<rect width="233" height="52" rx="4" fill="black"/>
<path d="M40.6466 40.7898H47.9015V18.9299H40.6466V40.7898ZM51.5289 15.2866H69.6659V8H51.5289V15.2866ZM40.6466 8H47.9015V15.2866H40.6466V8ZM29.7644 40.7898H37.0192V8H29.7644V40.7898ZM18.8822 33.5032H26.137V8H18.8822V33.5032ZM8 40.7898H15.2548V8H8V40.7898ZM51.5289 40.7898H58.7837V18.9299H51.5289V40.7898Z" fill="white"/>
<path d="M76.3799 33.9873C76.3799 29.8981 78.929 26.8596 82.9437 26.8596C86.9579 26.8596 89.4884 29.8977 89.4884 33.9873C89.4884 38.0764 86.9583 41.0958 82.9437 41.0958C78.929 41.0954 76.3799 38.0764 76.3799 33.9873ZM86.6726 33.9873C86.6726 31.2548 85.4552 29.1335 82.9627 29.1335C80.4702 29.1335 79.1957 31.2543 79.1957 33.9873C79.1957 36.7006 80.4702 38.8219 82.9627 38.8219C85.4552 38.8219 86.6726 36.7006 86.6726 33.9873Z" fill="white"/>
<path d="M90.7817 30.987H93.2742V32.2098H93.3314C93.9593 31.35 94.8725 30.7192 96.2043 30.7192C98.7915 30.7192 100.447 32.8401 100.447 35.8977C100.447 39.0697 98.7348 41.0762 96.2233 41.0762C94.8535 41.0762 93.9593 40.522 93.4075 39.6813H93.3694V44H90.7822V30.987H90.7817ZM97.8212 35.9742C97.8212 34.1207 97.1741 32.8214 95.5763 32.8214C93.9589 32.8214 93.3123 34.2163 93.3123 35.9742C93.3123 37.7513 94.1303 38.9171 95.6715 38.9171C96.9842 38.9171 97.8212 37.8278 97.8212 35.9742Z" fill="white"/>
<path d="M101.169 35.8791C101.169 32.9744 103.129 30.7197 105.983 30.7197C109.122 30.7197 110.796 33.1275 110.796 36.6241H103.719C103.909 38.1338 104.746 39.0701 106.211 39.0701C107.219 39.0701 107.809 38.6115 108.095 37.8665H110.644C110.282 39.6053 108.741 41.0767 106.23 41.0767C102.995 41.0762 101.169 38.8024 101.169 35.8791ZM103.757 34.828H108.095C108.018 33.5861 107.2 32.7262 106.021 32.7262C104.651 32.7258 103.985 33.5478 103.757 34.828Z" fill="white"/>
<path d="M114.525 32.3246H114.582C115.248 31.2735 116.142 30.7192 117.474 30.7192C119.491 30.7192 120.841 32.248 120.841 34.388V40.7898H118.254V34.7706C118.254 33.7195 117.645 32.9744 116.561 32.9744C115.42 32.9744 114.582 33.8916 114.582 35.2292V40.7898H111.995V30.987H114.525V32.3246H114.525Z" fill="white"/>
<path d="M122.059 34.0064C122.059 29.9555 124.57 26.8596 128.584 26.8596C131.933 26.8596 133.911 28.8661 134.197 31.4647H131.457C131.21 30.0889 130.183 29.1909 128.584 29.1909C126.073 29.1909 124.874 31.293 124.874 34.0064C124.874 36.7963 126.32 38.8028 128.603 38.8028C130.22 38.8028 131.362 37.8282 131.533 36.395H134.235C134.159 37.5987 133.645 38.7646 132.732 39.6244C131.8 40.5033 130.487 41.0767 128.603 41.0767C124.779 41.0762 122.059 38.1147 122.059 34.0064Z" fill="white"/>
<path d="M135.071 35.8982C135.071 32.9744 137.145 30.7197 140.17 30.7197C143.194 30.7197 145.268 32.9744 145.268 35.8982C145.268 38.8219 143.195 41.0767 140.17 41.0767C137.145 41.0762 135.071 38.8215 135.071 35.8982ZM142.643 35.8982C142.643 33.9873 141.749 32.688 140.17 32.688C138.571 32.688 137.696 33.9873 137.696 35.8982C137.696 37.8091 138.571 39.0893 140.17 39.0893C141.749 39.0893 142.643 37.8087 142.643 35.8982Z" fill="white"/>
<path d="M152.631 40.7898V39.643H152.573C151.907 40.5411 151.147 41.0571 149.777 41.0571C147.608 41.0571 146.39 39.6622 146.39 37.5222V30.987H148.958V37.0827C148.958 38.2294 149.472 38.8597 150.576 38.8597C151.793 38.8597 152.535 37.9425 152.535 36.6432V30.987H155.123V40.7898H152.631Z" fill="white"/>
<path d="M159.289 32.5541H159.347C159.936 31.4456 160.602 30.8727 161.744 30.8727C162.029 30.8727 162.2 30.8918 162.353 30.9492V33.2231H162.296C160.603 33.0509 159.385 33.949 159.385 36.013V40.7898H156.797V30.987H159.29V32.5541H159.289Z" fill="white"/>
<path d="M162.866 37.6178H165.263C165.434 38.7454 166.233 39.2423 167.394 39.2423C168.535 39.2423 169.182 38.8028 169.182 38.1147C169.182 37.1784 167.945 37.0827 166.614 36.8154C164.864 36.4716 163.151 35.9938 163.151 33.8534C163.151 31.7325 164.902 30.7197 167.127 30.7197C169.696 30.7197 171.123 31.9998 171.313 33.9681H168.973C168.859 32.9171 168.193 32.535 167.089 32.535C166.081 32.535 165.415 32.9171 165.415 33.6243C165.415 34.465 166.709 34.5415 168.098 34.828C169.734 35.1718 171.542 35.6304 171.542 37.9234C171.542 39.8917 169.868 41.0762 167.432 41.0762C164.597 41.0762 163.018 39.7004 162.866 37.6178Z" fill="white"/>
<path d="M172.321 35.8791C172.321 32.9744 174.281 30.7197 177.134 30.7197C180.273 30.7197 181.948 33.1275 181.948 36.6241H174.87C175.061 38.1338 175.898 39.0701 177.363 39.0701C178.371 39.0701 178.961 38.6115 179.246 37.8665H181.796C181.434 39.6053 179.893 41.0767 177.382 41.0767C174.147 41.0762 172.321 38.8024 172.321 35.8791ZM174.909 34.828H179.246C179.17 33.5861 178.352 32.7262 177.173 32.7262C175.803 32.7258 175.137 33.5478 174.909 34.828Z" fill="white"/>
<path d="M182.404 27.1274H185.22L186.989 33.9108C187.255 35.0766 187.579 36.8919 187.579 36.8919H187.617C187.617 36.8919 187.959 35.1914 188.245 33.9873L189.728 27.1274H192.392L193.876 33.9682C194.161 35.1718 194.504 36.8919 194.504 36.8919H194.542C194.542 36.8919 194.941 35.0766 195.208 33.8916L196.92 27.1274H199.64L195.759 40.7898H193.191L191.536 33.4713C191.307 32.4776 191.06 31.0444 191.06 31.0444H191.022C191.022 31.0444 190.813 32.4776 190.585 33.4713L188.91 40.7898H186.361L182.404 27.1274Z" fill="white"/>
<path d="M205.367 39.7004H205.329C204.834 40.4455 204.13 41.0189 202.456 41.0189C200.458 41.0189 199.05 39.9678 199.05 38.0186C199.05 35.8595 200.801 35.1713 202.97 34.8658C204.587 34.6362 205.329 34.5028 205.329 33.7573C205.329 33.0505 204.777 32.5919 203.693 32.5919C202.475 32.5919 201.886 33.0314 201.809 33.9677H199.507C199.584 32.248 200.858 30.7383 203.712 30.7383C206.642 30.7383 207.821 32.0568 207.821 34.3498V39.337C207.821 40.0821 207.936 40.5215 208.164 40.6937V40.7893H205.671C205.519 40.5985 205.424 40.1399 205.367 39.7004ZM205.386 37.3309V35.8595C204.929 36.1273 204.226 36.2798 203.579 36.4328C202.228 36.7384 201.562 37.0445 201.562 37.9617C201.562 38.8789 202.171 39.2036 203.084 39.2036C204.568 39.2036 205.386 38.2864 205.386 37.3309Z" fill="white"/>
<path d="M211.949 32.5541H212.006C212.596 31.4456 213.262 30.8727 214.403 30.8727C214.689 30.8727 214.86 30.8918 215.012 30.9492V33.2231H214.955C213.262 33.0509 212.044 33.949 212.044 36.013V40.7898H209.457V30.987H211.95V32.5541H211.949Z" fill="white"/>
<path d="M215.374 35.8791C215.374 32.9744 217.333 30.7197 220.187 30.7197C223.326 30.7197 225.001 33.1275 225.001 36.6241H217.923C218.114 38.1338 218.951 39.0701 220.416 39.0701C221.424 39.0701 222.014 38.6115 222.299 37.8665H224.848C224.487 39.6053 222.946 41.0767 220.435 41.0767C217.2 41.0762 215.374 38.8024 215.374 35.8791ZM217.961 34.828H222.299C222.223 33.5861 221.405 32.7262 220.226 32.7262C218.855 32.7258 218.189 33.5478 217.961 34.828Z" fill="white"/>
</svg>
